<svg width="100" height="100" viewBox="0 0 100 100" fill="none" xmlns="http://www.w3.org/2000/svg">
<ellipse cx="49.4118" cy="82.0652" rx="32.9412" ry="17.9348" fill="#443266"/>
<ellipse cx="50" cy="76.6304" rx="38.2353" ry="15.7609" fill="#F1F0FF"/>
<path d="M100 54.4901C100 74.039 77.6142 89.8865 50 89.8865C22.3858 89.8865 0 74.039 0 54.4901C0 34.9412 22.3858 38.2561 50 38.2561C77.6142 38.2561 100 34.9412 100 54.4901Z" fill="#523D79"/>
<path d="M78.2575 3.75152C80.1074 1.68411 83.4015 1.38545 85.5954 3.08622L90.0402 6.53209C92.2115 8.21541 92.4857 11.2244 90.6543 13.2702L71.7647 34.3713L50.8579 34.3713L78.2575 3.75152Z" fill="#443266"/>
<path d="M23.5294 10.8696L26.1708 18.3803L34.7183 18.3803L27.8032 23.0221L30.4445 30.5328L23.5294 25.8909L16.6143 30.5328L19.2556 23.0221L12.3405 18.3803L20.8881 18.3803L23.5294 10.8696Z" fill="#68B9BD"/>
</svg>
