<svg width="491" height="236" viewBox="0 0 491 236" fill="none" xmlns="http://www.w3.org/2000/svg">
<path d="M20.64 165.8C16.32 174.28 11.68 184.36 6.4 197.48C5.76 199.08 4.96 199.24 3.84 198.12C1.6 195.72 0 190.92 2.4 182.28C6.4 167.72 21.44 137.32 35.52 115.24C30.08 114.76 27.2 112.36 25.28 108.84C24.48 107.24 24.96 106.44 27.04 106.12C40.48 104.52 52.48 97.96 63.2 97.48C71.36 97.16 78.4 99.56 82.24 110.44C85.6 120.04 83.36 129.8 77.28 137.96C68.64 149.48 51.36 159.56 33.6 163.72C39.68 171.24 45.44 178.92 48.8 185.64C51.04 189.96 51.68 195.4 49.6 198.6C48.8 199.88 48 200.36 47.04 198.92C36.48 184.52 28.16 174.12 20.64 165.8ZM45.28 114.28C45.28 118.76 43.52 124.36 39.2 132.36C34.88 140.04 30.88 146.76 26.56 154.6C61.92 146.76 80 123.4 75.36 112.04C71.84 103.08 55.84 111.4 45.28 114.28ZM83.1575 169.64C78.0375 184.36 81.8775 194.44 90.3575 194.92C103.638 195.56 115.318 182.76 122.198 172.2C122.998 170.92 124.278 170.92 124.918 172.36C125.558 173.64 125.078 178.12 122.198 182.28C115.477 192.04 103.158 199.4 90.8375 199.56C70.5175 199.88 63.4775 179.88 73.8775 159.24C84.2775 138.6 100.598 130.28 108.598 134.92C112.598 137.32 115.477 139.72 118.038 143.24C120.918 147.08 119.638 156.84 112.918 165C105.078 174.6 94.3575 178.76 83.1575 169.64ZM84.5975 166.12C92.4375 171.08 98.9975 164.2 103.638 158.12C108.758 151.4 112.278 143.08 110.038 141.32C106.678 138.6 93.3975 148.2 85.8775 163.4C85.3975 164.36 84.9175 165.32 84.5975 166.12ZM159.208 135.24C163.528 137.8 166.088 140.36 168.008 144.04C171.368 150.76 164.968 159.24 161.768 167.88C161.128 169.8 160.488 170.28 158.408 169.16C154.568 167.24 152.328 162.44 154.568 155.24C156.328 149.48 161.128 142.6 158.888 140.84C156.168 138.6 144.168 148.84 136.968 163.4C128.168 181.48 131.528 194.76 140.968 194.92C154.408 195.08 165.928 182.28 172.488 172.2C173.288 170.92 174.728 170.76 175.368 172.36C175.848 173.64 175.208 177.64 172.488 181.96C166.408 191.4 153.768 199.24 141.608 199.4C121.288 199.72 114.408 179.88 124.808 159.24C135.048 139.08 151.208 130.44 159.208 135.24ZM212.415 98.44C213.855 96.36 215.295 96.68 216.255 98.6C218.495 103.24 218.335 110.92 211.455 123.08C201.535 140.52 183.935 171.4 172.255 197.64C171.615 199.24 170.975 199.4 169.695 197.96C167.455 195.56 165.535 189.96 169.055 180.2C176.895 158.44 199.455 117.16 212.415 98.44ZM227.034 196.36C242.714 195.4 252.314 183.88 257.434 173C258.394 170.76 260.154 171.4 260.474 173C260.794 174.44 261.114 178.6 258.394 183.56C252.314 194.6 241.434 199.88 229.914 200.68C219.674 201.32 212.954 199.88 207.354 194.76C203.994 191.72 202.394 188.04 201.914 184.04C194.394 197.8 186.234 214.12 178.554 231.88C177.914 233.32 176.794 233.64 175.834 232.2C173.434 228.84 172.634 224.36 175.674 214.6C180.474 199.08 207.354 148.36 217.434 134.92C219.034 132.84 220.474 133.16 221.274 135.08C222.074 137.16 222.394 139.56 222.234 142.28C229.274 136.2 238.714 131.72 245.594 138.92C253.274 147.08 249.754 161.32 243.834 174.44C239.034 185 233.114 192.68 227.034 196.36ZM210.874 168.04C206.874 178.12 206.074 187.72 210.554 191.4C215.674 195.56 226.074 183.88 233.594 168.52C239.834 155.72 241.594 142.44 237.594 140.52C233.754 138.6 223.834 146.6 216.314 158.92C214.554 161.8 212.794 164.68 210.874 168.04ZM270.501 169.64C265.381 184.36 269.221 194.44 277.701 194.92C290.981 195.56 302.661 182.76 309.541 172.2C310.341 170.92 311.621 170.92 312.261 172.36C312.901 173.64 312.421 178.12 309.541 182.28C302.821 192.04 290.501 199.4 278.181 199.56C257.861 199.88 250.821 179.88 261.221 159.24C271.621 138.6 287.941 130.28 295.941 134.92C299.941 137.32 302.821 139.72 305.381 143.24C308.261 147.08 306.981 156.84 300.261 165C292.421 174.6 281.701 178.76 270.501 169.64ZM271.941 166.12C279.781 171.08 286.341 164.2 290.981 158.12C296.101 151.4 299.621 143.08 297.381 141.32C294.021 138.6 280.741 148.2 273.221 163.4C272.741 164.36 272.261 165.32 271.941 166.12ZM339.991 115.56C334.551 114.92 331.511 112.2 329.911 108.84C329.111 107.08 329.431 106.12 331.511 105.96C344.791 104.52 356.791 97.8 367.671 97.32C375.831 97 382.871 99.56 386.711 110.6C390.071 120.2 387.351 129.48 381.911 137.96C373.911 150.44 356.631 162.44 335.671 166.44C331.991 167.08 328.471 166.44 325.751 164.84C321.271 173.64 316.471 184.2 310.871 197.48C310.231 199.08 309.431 199.08 308.311 197.96C306.071 195.56 304.471 190.76 306.871 182.12C311.031 167.56 326.071 137.48 339.991 115.56ZM330.391 155.88C366.231 149.16 384.151 123.24 379.831 112.04C376.471 103.24 360.471 111.56 349.911 114.6C349.911 118.92 348.311 124.52 343.831 132.2C339.671 139.56 335.191 146.92 330.391 155.88ZM420.434 145C422.514 141.16 424.434 137.8 426.194 135.24C427.634 133.16 428.914 132.84 430.034 134.28C432.434 137.16 433.714 144.04 429.874 152.04C426.354 159.24 418.354 171.24 414.514 179.72C410.514 188.68 410.354 195.56 415.794 195.24C422.354 194.92 431.154 184.04 436.754 173C437.554 171.56 438.674 171.4 439.314 172.84C439.954 174.28 439.954 178.28 437.874 182.76C433.714 191.56 423.634 200.36 414.834 199.88C406.194 199.4 401.714 194.28 401.714 186.76C396.594 193.32 389.394 199.24 381.714 199.24C366.834 199.24 363.794 178.92 377.074 159.56C390.034 140.68 402.674 133.48 410.674 133.48C417.554 133.48 420.754 138.76 420.434 145ZM406.514 169.8C416.594 152.2 418.034 142.28 413.394 141.8C408.274 141.32 396.594 151.72 387.794 165.96C379.314 179.72 377.234 193.8 383.474 193.96C390.034 194.12 398.354 183.88 406.514 169.8ZM449.43 165C443.03 180.68 441.27 193.96 448.47 194.6C456.15 195.24 467.35 183.72 473.59 171.4C474.71 169.32 476.47 169.16 477.11 171.4C477.91 173.96 477.27 177.48 475.51 181.32C473.27 186.12 461.59 199.4 448.79 199.08C437.75 198.76 431.83 191.08 435.51 173.8C441.43 145.96 459.67 117 475.99 100.04C478.39 97.48 480.63 97.16 482.87 99.24C487.51 103.4 488.47 109.32 486.55 116.84C481.59 136.52 463.67 155.72 449.43 165ZM452.31 158.12C474.23 140.36 483.19 114.76 481.11 113.48C479.03 112.2 467.19 129.96 456.15 150.44C454.71 153 453.43 155.56 452.31 158.12Z" fill="white"/>
<ellipse cx="191" cy="51.6858" rx="25" ry="29.8036" fill="#970101"/>
<ellipse cx="241.806" cy="51.6858" rx="24.1936" ry="29.8036" fill="#970101"/>
<ellipse cx="215.194" cy="38.7709" rx="28.2258" ry="34.7709" fill="#FFCD4D"/>
<ellipse cx="215.194" cy="38.7709" rx="20.1613" ry="24.8364" fill="#FFCD4D"/>
<rect x="188.581" y="39.7644" width="54.8387" height="43.712" rx="3" fill="#FFCD4D"/>
<ellipse cx="188.581" cy="51.6858" rx="16.129" ry="19.8691" fill="white"/>
<ellipse cx="243.419" cy="51.6858" rx="16.129" ry="19.8691" fill="white"/>
<ellipse cx="215.194" cy="38.7709" rx="28.2258" ry="34.7709" fill="#970101"/>
<ellipse cx="215.194" cy="36.784" rx="20.1613" ry="24.8364" fill="white"/>
<rect x="186.968" y="47.712" width="56.4516" height="37.7513" fill="white"/>
<ellipse cx="204.679" cy="64.6007" rx="14.151" ry="14.9018" fill="#970101"/>
<ellipse cx="225.434" cy="64.6007" rx="14.151" ry="14.9018" fill="#970101"/>
<rect x="196.189" y="39.7644" width="37.7359" height="39.7382" rx="18.8679" fill="white"/>
<rect x="211.283" y="49.6989" width="5.66038" height="25.8298" rx="2.83019" fill="#970101"/>
<path d="M243.044 72L255.122 74.2427L236 114.07L238.621 98.4158L243.044 72Z" fill="#970101"/>
<path d="M174 73.4152L187.007 71L191.266 96.4374L194.051 113.07L174 73.4152Z" fill="#970101"/>
</svg>
