<svg width="95" height="100" viewBox="0 0 95 100" fill="none" xmlns="http://www.w3.org/2000/svg">
<path d="M58 19.802H63V23.7624H58V19.802Z" fill="black"/>
<path d="M95.0001 49.505C95.0001 76.8458 77.0915 99.0099 55.0001 99.0099C15.0001 100.99 22 84.1584 16.5001 49.505C16.5001 22.1641 32.9087 0 55.0001 0C77.0915 0 95.0001 22.1641 95.0001 49.505Z" fill="#3770C6"/>
<path d="M23.9728 29.0989C26.9238 24.0936 33.5514 22.6426 38.3302 25.9556V25.9556C42.8084 29.0603 43.9193 35.1677 40.8211 39.6497L23.4914 64.7194C21.0718 68.2196 16.4859 69.5232 12.577 67.8218V67.8218C7.72732 65.7109 5.82566 59.8793 8.50503 55.3347L23.9728 29.0989Z" fill="#3770C6"/>
<path d="M27.4462 30.2985C29.6049 26.7682 34.3203 25.7752 37.7231 28.1342V28.1342C41.0045 30.4091 41.7649 34.9115 39.4128 38.1387L21.1245 63.2309C19.5714 65.3618 16.7838 66.217 14.2959 65.326V65.326C10.7854 64.0688 9.321 59.9402 11.2605 56.7684L27.4462 30.2985Z" fill="#F1F0FF"/>
<path d="M89 49.9291C89 75.3169 73.2602 95.8978 53.8441 95.8978C18.6881 97.7366 25 85.1485 20.0065 49.9291C20.0065 24.5413 34.428 3.96039 53.8441 3.96039C73.2602 3.96039 89 24.5413 89 49.9291Z" fill="#F1F0FF"/>
<path d="M16.5 63.3065C16.5 60.6055 18.6896 58.4158 21.3907 58.4158H29.6395C31.2193 58.4158 32.5 59.6965 32.5 61.2764V61.2764C32.5 63.2576 30.5346 64.6389 28.6705 63.9678L28.1543 63.7819C27.4104 63.5141 26.5944 63.527 25.8594 63.8181L22.2869 65.2329C22.0967 65.3082 21.8964 65.3551 21.6924 65.3719L16.6088 65.7913C16.4019 65.8084 16.2866 65.5578 16.4341 65.4118V65.4118C16.4763 65.37 16.5 65.3131 16.5 65.2538V63.3065Z" fill="#F1F0FF"/>
<rect x="48" width="47" height="100" fill="#F1F0FF"/>
<ellipse cx="61" cy="38.6139" rx="5" ry="4.9505" fill="white"/>
<ellipse cx="57.5" cy="47" rx="18.5" ry="21" fill="#FFCD4D"/>
<rect x="50.1" y="61.28" width="14.8" height="21" fill="#FFCD4D"/>
<path d="M64.5103 59.5946L70.7103 61.2081L67.3327 66.3726L65.4009 72.7358L64.1808 80.4024L62.4726 80.0581L56.1948 75.9438L64.5103 59.5946Z" fill="#FFCD4D"/>
<path d="M44.92 62.12L52.6103 57.08L61.8603 75.2666L50.47 81.02L50.1 74.72L49.36 70.94L47.88 66.74L44.92 62.12Z" fill="#FFCD4D"/>
<path d="M45.6072 47.5C45.6072 53.5 49.118 58.7079 46.9286 58.7079C44.7392 58.7079 41.6429 52.5957 41.6429 47.0728C41.6429 41.55 44.7392 36.0728 46.9286 36.0728C49.118 36.0728 44.7262 42 45.6072 47.5Z" fill="#F1F0FF"/>
<rect x="48.6905" y="76" width="17.6191" height="3" rx="1.5" fill="black"/>
<rect x="52.2143" y="84" width="11.4524" height="3" rx="1.5" fill="black"/>
<rect x="57" y="12" width="3" height="9" fill="#FFCD4D"/>
<rect x="26" y="45" width="3" height="9" transform="rotate(-90 26 45)" fill="#FFCD4D"/>
<rect x="82" y="45" width="3" height="9" transform="rotate(-90 82 45)" fill="#FFCD4D"/>
<rect x="76.2982" y="25.8228" width="3" height="9" transform="rotate(-140 76.2982 25.8228)" fill="#FFCD4D"/>
<rect x="37.8944" y="61" width="3" height="9" transform="rotate(50 37.8944 61)" fill="#FFCD4D"/>
<rect x="76" y="61.2982" width="3" height="9" transform="rotate(-50 76 61.2982)" fill="#FFCD4D"/>
<path d="M42.0833 24.8944L39.7851 26.8228L34 19.9284L36.2982 18L42.0833 24.8944Z" fill="#FFCD4D"/>
</svg>
